<svg width="34" height="36" viewBox="0 0 34 36" fill="none" xmlns="http://www.w3.org/2000/svg">
<path d="M16.9997 0.333008C26.2047 0.333008 33.6663 7.79467 33.6663 16.9997V23.273C33.6663 23.8922 33.4939 24.4991 33.1683 25.0257C32.8427 25.5524 32.3769 25.9779 31.823 26.2547L26.9997 28.6663V30.333C26.9997 31.6084 26.5125 32.8355 25.6375 33.7634C24.7626 34.6913 23.5662 35.2499 22.293 35.3247L21.9163 35.333C21.953 35.1515 21.9775 34.9678 21.9897 34.783L21.9997 34.4997V33.6663C21.9999 32.8254 21.6823 32.0154 21.1105 31.3988C20.5387 30.7821 19.7549 30.4044 18.9163 30.3413L18.6663 30.333H15.333C14.492 30.3327 13.6821 30.6504 13.0654 31.2222C12.4488 31.794 12.0711 32.5777 12.008 33.4163L11.9997 33.6663V34.4997C11.9997 34.7847 12.028 35.0647 12.083 35.333H11.9997C10.6736 35.333 9.40182 34.8062 8.46414 33.8685C7.52646 32.9309 6.99967 31.6591 6.99967 30.333V28.6663L2.17634 26.2547C1.62223 25.9778 1.15624 25.552 0.830639 25.025C0.505041 24.498 0.33272 23.8908 0.333008 23.2713V16.9997C0.333008 7.79467 7.79468 0.333008 16.9997 0.333008ZM16.9997 3.66634C13.5356 3.66638 10.2076 5.01457 7.72017 7.42546C5.23275 9.83634 3.78126 13.1207 3.67301 16.583L3.66634 16.9997V23.273L10.333 26.6063V29.258L10.458 29.118C11.6385 27.8508 13.2666 27.0939 14.9963 27.008L15.333 26.9997L18.788 27.0013L19.1597 27.018C20.8247 27.1413 22.3097 27.868 23.4097 28.9797L23.6663 29.258V26.6063L30.333 23.273V16.9997C30.333 13.4635 28.9283 10.0721 26.4278 7.57158C23.9273 5.0711 20.5359 3.66634 16.9997 3.66634ZM10.333 15.333C11.2171 15.333 12.0649 15.6842 12.69 16.3093C13.3152 16.9344 13.6663 17.7823 13.6663 18.6663C13.6663 19.5504 13.3152 20.3982 12.69 21.0234C12.0649 21.6485 11.2171 21.9997 10.333 21.9997C9.44895 21.9997 8.60111 21.6485 7.97599 21.0234C7.35086 20.3982 6.99967 19.5504 6.99967 18.6663C6.99967 17.7823 7.35086 16.9344 7.97599 16.3093C8.60111 15.6842 9.44895 15.333 10.333 15.333ZM23.6663 15.333C24.5504 15.333 25.3982 15.6842 26.0234 16.3093C26.6485 16.9344 26.9997 17.7823 26.9997 18.6663C26.9997 19.5504 26.6485 20.3982 26.0234 21.0234C25.3982 21.6485 24.5504 21.9997 23.6663 21.9997C22.7823 21.9997 21.9344 21.6485 21.3093 21.0234C20.6842 20.3982 20.333 19.5504 20.333 18.6663C20.333 17.7823 20.6842 16.9344 21.3093 16.3093C21.9344 15.6842 22.7823 15.333 23.6663 15.333Z" fill="white"/>
</svg>
