<svg width="34" height="34" viewBox="0 0 34 34" fill="none" xmlns="http://www.w3.org/2000/svg">
<path d="M30.333 16.9997C30.333 13.4635 28.9283 10.0721 26.4278 7.57158C23.9273 5.0711 20.5359 3.66634 16.9997 3.66634C13.4635 3.66634 10.0721 5.0711 7.57158 7.57158C5.0711 10.0721 3.66634 13.4635 3.66634 16.9997V23.6663H8.66634C9.10837 23.6663 9.53229 23.8419 9.84485 24.1545C10.1574 24.4671 10.333 24.891 10.333 25.333V30.333H23.6663V25.333C23.6663 24.891 23.8419 24.4671 24.1545 24.1545C24.4671 23.8419 24.891 23.6663 25.333 23.6663H30.333V16.9997ZM26.9997 26.9997V31.9997C26.9997 32.4417 26.8241 32.8656 26.5115 33.1782C26.199 33.4907 25.775 33.6663 25.333 33.6663H8.66634C8.22431 33.6663 7.80039 33.4907 7.48783 33.1782C7.17527 32.8656 6.99967 32.4417 6.99967 31.9997V26.9997H1.99967C1.55765 26.9997 1.13372 26.8241 0.821163 26.5115C0.508602 26.199 0.333008 25.775 0.333008 25.333V16.9997C0.333008 7.79468 7.79468 0.333008 16.9997 0.333008C26.2047 0.333008 33.6663 7.79468 33.6663 16.9997V25.333C33.6663 25.775 33.4907 26.199 33.1782 26.5115C32.8656 26.8241 32.4417 26.9997 31.9997 26.9997H26.9997ZM9.49967 20.333C9.17137 20.333 8.84628 20.2683 8.54297 20.1427C8.23965 20.0171 7.96405 19.8329 7.73191 19.6008C7.49976 19.3686 7.31561 19.093 7.18998 18.7897C7.06434 18.4864 6.99967 18.1613 6.99967 17.833C6.99967 17.5047 7.06434 17.1796 7.18998 16.8763C7.31561 16.573 7.49976 16.2974 7.73191 16.0652C7.96405 15.8331 8.23965 15.6489 8.54297 15.5233C8.84628 15.3977 9.17137 15.333 9.49967 15.333C10.1627 15.333 10.7986 15.5964 11.2674 16.0652C11.7363 16.5341 11.9997 17.17 11.9997 17.833C11.9997 18.496 11.7363 19.1319 11.2674 19.6008C10.7986 20.0696 10.1627 20.333 9.49967 20.333ZM24.4997 20.333C24.1714 20.333 23.8463 20.2683 23.543 20.1427C23.2397 20.0171 22.9641 19.8329 22.7319 19.6008C22.4998 19.3686 22.3156 19.093 22.19 18.7897C22.0643 18.4864 21.9997 18.1613 21.9997 17.833C21.9997 17.5047 22.0643 17.1796 22.19 16.8763C22.3156 16.573 22.4998 16.2974 22.7319 16.0652C22.9641 15.8331 23.2397 15.6489 23.543 15.5233C23.8463 15.3977 24.1714 15.333 24.4997 15.333C25.1627 15.333 25.7986 15.5964 26.2674 16.0652C26.7363 16.5341 26.9997 17.17 26.9997 17.833C26.9997 18.496 26.7363 19.1319 26.2674 19.6008C25.7986 20.0696 25.1627 20.333 24.4997 20.333Z" fill="white"/>
</svg>
